<?xml version="1.0" encoding="UTF-8" standalone="no"?>
<svg xmlns="http://www.w3.org/2000/svg" width="4mm" height="4mm" viewBox="0 0 4 4">
<desc>Created with Glowforge for Fusion 360. To download visit: https://cam.autodesk.com/hsmposts?p=glowforge</desc>
<!-- CAM Setup Info:
Work Area Width: 4mm
Work Area Height: 4mm
Work Area Too Small?: false
Stock box Upper Right: 0,0
Stock box Lower Left: 0,0
Origin: 0,0
Selected Colors: #0000d3, #02abea, #1fb714, #dd0907, #f20884, #fbf305
-->
<g id="global-translation-frame" transform="translate(2, 2) scale(1, -1)">
<g id="opperation-1">
    <title>2D Profile4 (Op: 1/3)</title>
    <path d="M -13.081 -12.976
             L 13.081 -12.976
             L 14.976 -12.976
             L 14.976 12.976
             L 13.081 12.976
             A 0.105 0.105 0 0 0 12.976 13.081
             L 12.976 15.014
             L -12.976 15.014
             L -12.976 13.081
             A 0.105 0.105 0 0 0 -13.081 12.976
             L -14.976 12.976
             L -14.976 -12.976
             L -13.081 -12.976" fill="none" stroke="#0000d3" stroke-width="0.1"/>
</g>
<g id="opperation-2">
    <title>2D Profile8 (Op: 2/3)</title>
    <path d="M -11.43 8.645
             A 0.245 0.245 0 0 1 -11.185 8.89
             A 0.245 0.245 0 0 1 -11.43 9.135
             A 0.245 0.245 0 0 1 -11.675 8.89
             A 0.245 0.245 0 0 1 -11.43 8.645
             M -11.43 6.105
             A 0.245 0.245 0 0 1 -11.185 6.35
             A 0.245 0.245 0 0 1 -11.43 6.595
             A 0.245 0.245 0 0 1 -11.675 6.35
             A 0.245 0.245 0 0 1 -11.43 6.105
             M -11.43 3.565
             A 0.245 0.245 0 0 1 -11.185 3.81
             A 0.245 0.245 0 0 1 -11.43 4.055
             A 0.245 0.245 0 0 1 -11.675 3.81
             A 0.245 0.245 0 0 1 -11.43 3.565
             M -11.43 1.025
             A 0.245 0.245 0 0 1 -11.185 1.27
             A 0.245 0.245 0 0 1 -11.43 1.515
             A 0.245 0.245 0 0 1 -11.675 1.27
             A 0.245 0.245 0 0 1 -11.43 1.025
             M -11.43 -1.515
             A 0.245 0.245 0 0 1 -11.185 -1.27
             A 0.245 0.245 0 0 1 -11.43 -1.025
             A 0.245 0.245 0 0 1 -11.675 -1.27
             A 0.245 0.245 0 0 1 -11.43 -1.515
             M -11.43 -4.055
             A 0.245 0.245 0 0 1 -11.185 -3.81
             A 0.245 0.245 0 0 1 -11.43 -3.565
             A 0.245 0.245 0 0 1 -11.675 -3.81
             A 0.245 0.245 0 0 1 -11.43 -4.055
             M -11.43 -6.595
             A 0.245 0.245 0 0 1 -11.185 -6.35
             A 0.245 0.245 0 0 1 -11.43 -6.105
             A 0.245 0.245 0 0 1 -11.675 -6.35
             A 0.245 0.245 0 0 1 -11.43 -6.595
             M -11.43 -8.645
             A 0.245 0.245 0 0 1 -11.675 -8.89
             A 0.245 0.245 0 0 1 -11.43 -9.135
             A 0.245 0.245 0 0 1 -11.185 -8.89
             A 0.245 0.245 0 0 1 -11.43 -8.645
             M 11.43 -8.645
             A 0.245 0.245 0 0 1 11.185 -8.89
             A 0.245 0.245 0 0 1 11.43 -9.135
             A 0.245 0.245 0 0 1 11.675 -8.89
             A 0.245 0.245 0 0 1 11.43 -8.645
             M 11.43 -6.105
             A 0.245 0.245 0 0 1 11.185 -6.35
             A 0.245 0.245 0 0 1 11.43 -6.595
             A 0.245 0.245 0 0 1 11.675 -6.35
             A 0.245 0.245 0 0 1 11.43 -6.105
             M 11.43 -3.565
             A 0.245 0.245 0 0 1 11.185 -3.81
             A 0.245 0.245 0 0 1 11.43 -4.055
             A 0.245 0.245 0 0 1 11.675 -3.81
             A 0.245 0.245 0 0 1 11.43 -3.565
             M 11.43 -1.025
             A 0.245 0.245 0 0 1 11.185 -1.27
             A 0.245 0.245 0 0 1 11.43 -1.515
             A 0.245 0.245 0 0 1 11.675 -1.27
             A 0.245 0.245 0 0 1 11.43 -1.025
             M 11.43 1.515
             A 0.245 0.245 0 0 1 11.185 1.27
             A 0.245 0.245 0 0 1 11.43 1.025
             A 0.245 0.245 0 0 1 11.675 1.27
             A 0.245 0.245 0 0 1 11.43 1.515
             M 11.43 3.565
             A 0.245 0.245 0 0 1 11.675 3.81
             A 0.245 0.245 0 0 1 11.43 4.055
             A 0.245 0.245 0 0 1 11.185 3.81
             A 0.245 0.245 0 0 1 11.43 3.565
             M 11.43 6.595
             A 0.245 0.245 0 0 1 11.185 6.35
             A 0.245 0.245 0 0 1 11.43 6.105
             A 0.245 0.245 0 0 1 11.675 6.35
             A 0.245 0.245 0 0 1 11.43 6.595
             M 11.43 8.645
             A 0.245 0.245 0 0 1 11.675 8.89
             A 0.245 0.245 0 0 1 11.43 9.135
             A 0.245 0.245 0 0 1 11.185 8.89
             A 0.245 0.245 0 0 1 11.43 8.645" fill="none" stroke="#02abea" stroke-width="0.1"/>
</g>
<g id="opperation-3">
    <title>2D Profile8 (Op: 3/3)</title>
    <path d="M 0.619 4.001
             L 0.619 5.876
             M 0.619 5.876
             L 0.619 7.751
             L 1.594 7.751
             L 1.744 7.751
             L 1.969 7.676
             L 2.119 7.601
             L 2.269 7.451
             L 2.344 7.301
             L 2.419 7.151
             L 2.494 6.926
             L 2.494 6.701
             L 2.419 6.551
             L 2.344 6.401
             L 2.269 6.176
             L 2.119 6.101
             L 1.969 5.951
             L 1.744 5.951
             L 1.594 5.876
             L 0.619 5.876
             M 0 8.289
             L 0 10.357
             L -0.76 9.634
             M 0 10.357
             L 0.76 9.634
             M -0.731 7.751
             L -0.731 4.901
             L -0.731 4.601
             L -0.806 4.451
             L -0.881 4.301
             L -1.031 4.151
             L -1.181 4.001
             L -1.406 4.001
             L -1.706 4.001
             L -2.006 4.001
             L -2.081 4.001
             L -2.231 4.076
             L -2.381 4.151
             L -2.531 4.301
             L -2.606 4.451
             L -2.681 4.676
             L -2.681 4.901
             L -2.681 7.751" fill="none" stroke="#1fb714" stroke-width="0.1"/>
</g>
</g>
</svg>
