<?xml version="1.0" encoding="UTF-8" standalone="no"?>
<svg xmlns="http://www.w3.org/2000/svg" width="39mm" height="39mm" viewBox="0 0 39 39">
<desc>Created with Glowforge for Fusion 360. To download visit: https://cam.autodesk.com/hsmposts?p=glowforge</desc>
<!-- CAM Setup Info:
Work Area Width: 39mm
Work Area Height: 39mm
Work Area Too Small?: false
Stock box Upper Right: 17.5,17.5
Stock box Lower Left: -17.5,-17.5
Origin: 0,0
Selected Colors: #0000d3, #02abea, #1fb714, #dd0907, #f20884, #fbf305
-->
<g id="global-translation-frame" transform="translate(19.5, 19.5) scale(1, -1)">
<g id="opperation-1">
    <title>2D Profile1 (5) (Op: 1/3)</title>
    <path d="M 8.607 -17.5
             A 0.115 0.115 0 0 0 8.492 -17.615
             L 2.658 -17.615
             A 0.115 0.115 0 0 0 2.543 -17.5
             L 2.543 -14.44
             L -3.06 -14.44
             L -3.06 -17.5
             A 0.115 0.115 0 0 0 -3.175 -17.615
             L -9.008 -17.615
             A 0.115 0.115 0 0 0 -9.123 -17.5
             L -9.123 -14.44
             L -14.325 -14.44
             A 0.115 0.115 0 0 0 -14.44 -14.325
             L -14.44 -8.607
             L -17.5 -8.607
             A 0.115 0.115 0 0 0 -17.615 -8.492
             L -17.615 -2.658
             A 0.115 0.115 0 0 0 -17.5 -2.543
             L -14.44 -2.543
             L -14.44 3.06
             L -17.5 3.06
             A 0.115 0.115 0 0 0 -17.615 3.175
             L -17.615 9.008
             A 0.115 0.115 0 0 0 -17.5 9.123
             L -14.44 9.123
             L -14.44 14.325
             A 0.115 0.115 0 0 0 -14.325 14.44
             L -8.607 14.44
             L -8.607 17.5
             A 0.115 0.115 0 0 0 -8.492 17.615
             L -2.658 17.615
             A 0.115 0.115 0 0 0 -2.543 17.5
             L -2.543 14.44
             L 3.06 14.44
             L 3.06 17.5
             A 0.115 0.115 0 0 0 3.175 17.615
             L 9.008 17.615
             A 0.115 0.115 0 0 0 9.123 17.5
             L 9.123 14.44
             L 14.325 14.44
             A 0.115 0.115 0 0 0 14.44 14.325
             L 14.44 8.607
             L 17.5 8.607
             A 0.115 0.115 0 0 0 17.615 8.492
             L 17.615 2.658
             A 0.115 0.115 0 0 0 17.5 2.543
             L 14.44 2.543
             L 14.44 -3.06
             L 17.5 -3.06
             A 0.115 0.115 0 0 0 17.615 -3.175
             L 17.615 -9.008
             A 0.115 0.115 0 0 0 17.5 -9.123
             L 14.44 -9.123
             L 14.44 -14.325
             A 0.115 0.115 0 0 0 14.325 -14.44
             L 8.607 -14.44
             L 8.607 -17.5" fill="none" stroke="#0000d3" stroke-width="0.1"/>
</g>
<g id="opperation-2">
    <title>2D Profile15 (2) (Op: 2/3)</title>
    <path d="M -3.092 -8.915
             A 0.885 0.885 0 0 1 -3.977 -9.8
             L -3.977 -11.17
             A 0.885 0.885 0 0 1 -3.092 -12.055
             L 3.092 -12.055
             A 0.885 0.885 0 0 1 3.977 -11.17
             L 3.977 -9.8
             A 0.885 0.885 0 0 1 3.092 -8.915
             L -3.092 -8.915
             M -3.944 -3.319
             A 0.885 0.885 0 0 1 -3.092 -3.965
             L 3.092 -3.965
             A 0.885 0.885 0 0 1 3.977 -3.08
             L 3.977 -1.71
             A 0.885 0.885 0 0 1 3.092 -0.825
             L -3.092 -0.825
             A 0.885 0.885 0 0 1 -3.977 -1.71
             L -3.977 -3.08
             A 0.885 0.885 0 0 1 -3.944 -3.319" fill="none" stroke="#02abea" stroke-width="0.1"/>
</g>
<g id="opperation-3">
    <title>2D Profile15 (3) (Op: 3/3)</title>
    <path d="M 5.325 -10.485
             A 0.875 0.875 0 0 1 6.2 -11.36
             A 0.875 0.875 0 0 1 7.075 -10.485
             A 0.875 0.875 0 0 1 6.2 -9.61
             A 0.875 0.875 0 0 1 5.325 -10.485
             M -5.325 -10.485
             A 0.875 0.875 0 0 1 -6.2 -9.61
             A 0.875 0.875 0 0 1 -7.075 -10.485
             A 0.875 0.875 0 0 1 -6.2 -11.36
             A 0.875 0.875 0 0 1 -5.325 -10.485" fill="none" stroke="#1fb714" stroke-width="0.1"/>
</g>
</g>
</svg>
