<?xml version="1.0" encoding="UTF-8" standalone="no"?>
<svg xmlns="http://www.w3.org/2000/svg" width="39mm" height="39mm" viewBox="0 0 39 39">
<desc>Created with Glowforge for Fusion 360. To download visit: https://cam.autodesk.com/hsmposts?p=glowforge</desc>
<!-- CAM Setup Info:
Work Area Width: 39mm
Work Area Height: 39mm
Work Area Too Small?: false
Stock box Upper Right: 17.5,17.5
Stock box Lower Left: -17.5,-17.5
Origin: 0,0
Selected Colors: #0000d3, #02abea, #1fb714, #dd0907, #f20884, #fbf305
-->
<g id="global-translation-frame" transform="translate(19.5, 19.5) scale(1, -1)">
<g id="opperation-1">
    <title>2D Profile1 (Op: 1/2)</title>
    <path d="M 8.322 -17.5
             A 0.105 0.105 0 0 0 8.217 -17.605
             L 2.483 -17.605
             A 0.105 0.105 0 0 0 2.378 -17.5
             L 2.378 -14.205
             L -3.345 -14.205
             L -3.345 -17.5
             A 0.105 0.105 0 0 0 -3.45 -17.605
             L -9.183 -17.605
             A 0.105 0.105 0 0 0 -9.288 -17.5
             L -9.288 -14.205
             L -14.1 -14.205
             A 0.105 0.105 0 0 0 -14.205 -14.1
             L -14.205 -8.322
             L -17.5 -8.322
             A 0.105 0.105 0 0 0 -17.605 -8.217
             L -17.605 -2.483
             A 0.105 0.105 0 0 0 -17.5 -2.378
             L -14.205 -2.378
             L -14.205 3.345
             L -17.5 3.345
             A 0.105 0.105 0 0 0 -17.605 3.45
             L -17.605 9.183
             A 0.105 0.105 0 0 0 -17.5 9.288
             L -14.205 9.288
             L -14.205 14.1
             A 0.105 0.105 0 0 0 -14.1 14.205
             L -8.322 14.205
             L -8.322 17.5
             A 0.105 0.105 0 0 0 -8.217 17.605
             L -2.483 17.605
             A 0.105 0.105 0 0 0 -2.378 17.5
             L -2.378 14.205
             L 3.345 14.205
             L 3.345 17.5
             A 0.105 0.105 0 0 0 3.45 17.605
             L 9.183 17.605
             A 0.105 0.105 0 0 0 9.288 17.5
             L 9.288 14.205
             L 14.1 14.205
             A 0.105 0.105 0 0 0 14.205 14.1
             L 14.205 8.322
             L 17.5 8.322
             A 0.105 0.105 0 0 0 17.605 8.217
             L 17.605 2.483
             A 0.105 0.105 0 0 0 17.5 2.378
             L 14.205 2.378
             L 14.205 -3.345
             L 17.5 -3.345
             A 0.105 0.105 0 0 0 17.605 -3.45
             L 17.605 -9.183
             A 0.105 0.105 0 0 0 17.5 -9.288
             L 14.205 -9.288
             L 14.205 -14.1
             A 0.105 0.105 0 0 0 14.1 -14.205
             L 8.322 -14.205
             L 8.322 -17.5" fill="none" stroke="#0000d3" stroke-width="0.1"/>
</g>
<g id="opperation-2">
    <title>2D Profile5 (Op: 2/2)</title>
    <path d="M -3.987 -11.17
             A 0.895 0.895 0 0 1 -3.092 -12.065
             L 3.092 -12.065
             A 0.895 0.895 0 0 1 3.987 -11.17
             L 3.987 -9.8
             A 0.895 0.895 0 0 1 3.092 -8.905
             L -3.092 -8.905
             A 0.895 0.895 0 0 1 -3.987 -9.8
             L -3.987 -11.17" fill="none" stroke="#02abea" stroke-width="0.1"/>
</g>
</g>
</svg>
