<?xml version="1.0" encoding="UTF-8" standalone="no"?>
<svg xmlns="http://www.w3.org/2000/svg" width="39mm" height="37.72999954223633mm" viewBox="0 0 39 37.72999954223633">
<desc>Created with Glowforge for Fusion 360. To download visit: https://cam.autodesk.com/hsmposts?p=glowforge</desc>
<!-- CAM Setup Info:
Work Area Width: 39mm
Work Area Height: 37.72999954223633mm
Work Area Too Small?: false
Stock box Upper Right: 17.5,16.864999771118164
Stock box Lower Left: -17.5,-16.864999771118164
Origin: 0,0
Selected Colors: #0000d3, #02abea, #1fb714, #dd0907, #f20884, #fbf305
-->
<g id="global-translation-frame" transform="translate(19.5, 18.865) scale(1, -1)">
<g id="opperation-1">
    <title>2D Profile4 (4) (Op: 1/1)</title>
    <path d="M 17.5 0.115
             A 0.115 0.115 0 0 0 17.615 0
             L 17.615 -5.622
             A 0.115 0.115 0 0 0 17.5 -5.737
             L 14.44 -5.737
             L 14.44 -11.128
             L 17.5 -11.128
             A 0.115 0.115 0 0 0 17.615 -11.243
             L 17.615 -16.865
             A 0.115 0.115 0 0 0 17.5 -16.98
             L 9.008 -16.98
             A 0.115 0.115 0 0 0 8.893 -16.865
             L 8.893 -13.805
             L 3.29 -13.805
             L 3.29 -16.865
             A 0.115 0.115 0 0 0 3.175 -16.98
             L -2.658 -16.98
             A 0.115 0.115 0 0 0 -2.773 -16.865
             L -2.773 -13.805
             L -8.377 -13.805
             L -8.377 -16.865
             A 0.115 0.115 0 0 0 -8.492 -16.98
             L -14.325 -16.98
             A 0.115 0.115 0 0 0 -14.44 -16.865
             L -14.44 -11.358
             L -17.5 -11.358
             A 0.115 0.115 0 0 0 -17.615 -11.243
             L -17.615 -5.622
             A 0.115 0.115 0 0 0 -17.5 -5.507
             L -14.44 -5.507
             L -14.44 -0.115
             L -17.5 -0.115
             A 0.115 0.115 0 0 0 -17.615 0
             L -17.615 5.622
             A 0.115 0.115 0 0 0 -17.5 5.737
             L -14.44 5.737
             L -14.44 11.128
             L -17.5 11.128
             A 0.115 0.115 0 0 0 -17.615 11.243
             L -17.615 16.865
             A 0.115 0.115 0 0 0 -17.5 16.98
             L 14.325 16.98
             A 0.115 0.115 0 0 0 14.44 16.865
             L 14.44 11.358
             L 17.5 11.358
             A 0.115 0.115 0 0 0 17.615 11.243
             L 17.615 5.622
             A 0.115 0.115 0 0 0 17.5 5.507
             L 14.44 5.507
             L 14.44 0.115
             L 17.5 0.115" fill="none" stroke="#0000d3" stroke-width="0.1"/>
</g>
</g>
</svg>
