<?xml version="1.0" encoding="UTF-8" standalone="no"?>
<svg xmlns="http://www.w3.org/2000/svg" width="39mm" height="37.72999954223633mm" viewBox="0 0 39 37.72999954223633">
<desc>Created with Glowforge for Fusion 360. To download visit: https://cam.autodesk.com/hsmposts?p=glowforge</desc>
<!-- CAM Setup Info:
Work Area Width: 39mm
Work Area Height: 37.72999954223633mm
Work Area Too Small?: false
Stock box Upper Right: 17.5,16.864999771118164
Stock box Lower Left: -17.5,-16.864999771118164
Origin: 0,0
Selected Colors: #0000d3, #02abea, #1fb714, #dd0907, #f20884, #fbf305
-->
<g id="global-translation-frame" transform="translate(19.5, 18.865) scale(1, -1)">
<g id="opperation-1">
    <title>2D Profile4 (Op: 1/1)</title>
    <path d="M 17.5 0.105
             A 0.105 0.105 0 0 0 17.605 0
             L 17.605 -5.622
             A 0.105 0.105 0 0 0 17.5 -5.727
             L 14.205 -5.727
             L 14.205 -11.138
             L 17.5 -11.138
             A 0.105 0.105 0 0 0 17.605 -11.243
             L 17.605 -16.865
             A 0.105 0.105 0 0 0 17.5 -16.97
             L 9.233 -16.97
             A 0.105 0.105 0 0 0 9.128 -16.865
             L 9.128 -13.57
             L 3.505 -13.57
             L 3.505 -16.865
             A 0.105 0.105 0 0 0 3.4 -16.97
             L -2.433 -16.97
             A 0.105 0.105 0 0 0 -2.538 -16.865
             L -2.538 -13.57
             L -8.162 -13.57
             L -8.162 -16.865
             A 0.105 0.105 0 0 0 -8.267 -16.97
             L -14.1 -16.97
             A 0.105 0.105 0 0 0 -14.205 -16.865
             L -14.205 -11.298
             L -17.5 -11.298
             A 0.105 0.105 0 0 0 -17.605 -11.193
             L -17.605 -5.672
             A 0.105 0.105 0 0 0 -17.5 -5.567
             L -14.205 -5.567
             L -14.205 -0.055
             L -17.5 -0.055
             A 0.105 0.105 0 0 0 -17.605 0.05
             L -17.605 5.572
             A 0.105 0.105 0 0 0 -17.5 5.677
             L -14.205 5.677
             L -14.205 11.188
             L -17.5 11.188
             A 0.105 0.105 0 0 0 -17.605 11.293
             L -17.605 16.865
             A 0.105 0.105 0 0 0 -17.5 16.97
             L 14.1 16.97
             A 0.105 0.105 0 0 0 14.205 16.865
             L 14.205 11.348
             L 17.5 11.348
             A 0.105 0.105 0 0 0 17.605 11.243
             L 17.605 5.622
             A 0.105 0.105 0 0 0 17.5 5.517
             L 14.205 5.517
             L 14.205 0.105
             L 17.5 0.105" fill="none" stroke="#0000d3" stroke-width="0.1"/>
</g>
</g>
</svg>
